<svg id="svg" version="1.1" xmlns="http://www.w3.org/2000/svg" xmlns:xlink="http://www.w3.org/1999/xlink" width="400" height="400" viewBox="0, 0, 400,400"><g id="svgg"><path id="path0" d="M170.703 1.849 C 166.836 2.885,156.289 6.877,147.266 10.720 C 129.016 18.493,126.524 19.418,109.771 24.640 C 91.963 30.191,85.305 34.094,79.373 42.462 C 64.610 63.287,65.292 79.179,83.213 132.031 C 84.743 136.543,89.706 152.012,94.242 166.406 C 102.781 193.502,108.845 209.937,114.276 220.703 C 116.010 224.141,119.282 231.172,121.548 236.328 C 126.803 248.289,126.049 247.950,136.808 243.177 C 155.469 234.898,172.733 231.250,193.252 231.250 C 214.097 231.250,226.559 234.780,260.501 250.298 C 269.595 254.455,268.417 254.925,275.625 244.261 C 282.410 234.223,283.982 230.160,289.364 208.754 C 295.291 185.180,296.678 182.109,312.416 157.713 C 318.812 147.798,319.354 147.024,327.381 136.328 C 342.325 116.416,350.946 90.260,346.563 78.125 C 338.133 54.783,332.824 47.469,316.406 36.578 C 281.921 13.701,199.658 -5.906,170.703 1.849 M166.146 12.488 C 158.275 21.842,155.483 46.284,158.873 76.172 C 162.878 111.494,166.965 139.360,171.821 164.453 C 175.233 182.082,175.269 182.464,173.080 177.706 C 161.492 152.512,148.960 70.814,152.298 42.224 C 153.959 27.994,159.690 14.495,165.380 11.411 C 168.363 9.793,168.386 9.826,166.146 12.488 M111.965 36.969 C 114.225 44.345,122.999 76.821,124.139 82.031 C 125.705 89.189,127.418 105.136,128.916 126.507 C 130.606 150.606,131.482 159.357,132.787 165.143 C 133.913 170.137,133.223 170.658,131.285 166.277 C 127.975 158.795,125.075 141.900,120.311 102.344 C 116.988 74.757,115.166 63.691,112.082 52.344 C 108.763 40.139,106.896 31.319,107.443 30.434 C 108.508 28.711,110.170 31.111,111.965 36.969 M82.044 64.781 C 90.427 73.709,94.457 86.152,101.173 123.828 C 104.899 144.739,110.466 172.123,112.840 181.222 C 115.080 189.810,114.944 191.076,112.476 184.624 C 106.018 167.750,101.726 152.224,94.964 121.289 C 87.455 86.936,85.136 79.012,79.723 69.205 C 74.744 60.185,75.814 58.145,82.044 64.781 M164.844 273.358 C 162.480 274.127,158.189 275.837,155.307 277.158 C 149.547 279.797,147.504 279.737,146.206 276.887 C 144.690 273.560,139.713 274.146,140.665 277.539 C 142.726 284.888,148.543 286.017,159.502 281.194 C 169.206 276.924,173.438 276.421,176.040 279.228 C 179.730 283.210,183.726 280.490,180.400 276.262 C 176.866 271.769,172.327 270.922,164.844 273.358 M283.937 281.497 C 279.822 285.062,285.784 290.458,298.438 294.621 C 319.456 301.536,319.616 302.833,301.165 316.715 C 289.036 325.840,284.375 330.283,284.375 332.719 C 284.375 334.665,286.835 336.719,289.165 336.719 C 292.608 336.719,324.392 314.634,331.202 307.510 L 333.889 304.699 332.598 301.993 C 327.425 291.144,290.671 275.663,283.937 281.497 M93.348 282.298 C 75.692 288.864,53.083 304.250,51.911 310.498 C 51.080 314.927,51.645 315.404,65.817 322.234 C 92.498 335.091,106.732 340.123,109.982 337.846 C 115.222 334.177,110.631 329.351,93.608 320.630 C 81.807 314.585,73.438 309.525,73.438 308.435 C 73.438 307.605,79.899 303.509,90.595 297.559 C 104.298 289.936,108.862 284.731,104.514 281.685 C 102.162 280.038,98.951 280.214,93.348 282.298 M155.078 295.051 C 141.336 302.312,145.551 325.324,160.819 326.392 C 175.043 327.387,180.915 302.064,167.981 295.508 C 163.894 293.437,158.495 293.245,155.078 295.051 M229.297 294.979 C 215.380 302.217,220.533 325.787,236.030 325.778 C 244.305 325.773,248.251 321.928,250.068 312.098 C 252.373 299.631,239.984 289.420,229.297 294.979 M163.628 307.205 C 165.249 309.520,165.161 311.190,163.330 312.846 C 160.532 315.379,157.529 310.726,159.763 307.316 C 161.269 305.018,162.079 304.994,163.628 307.205 M238.148 309.628 C 238.475 311.352,236.190 314.063,234.410 314.063 C 231.650 314.063,230.264 310.674,232.223 308.715 C 233.672 307.266,237.821 307.906,238.148 309.628 M213.356 340.940 C 205.523 348.920,201.862 349.240,194.661 342.573 C 189.547 337.839,186.719 337.005,186.719 340.232 C 186.719 344.432,197.534 353.122,202.734 353.101 C 210.810 353.067,225.378 338.673,218.355 337.666 C 217.347 337.521,215.567 338.687,213.356 340.940 M172.266 357.439 C 169.688 357.978,163.887 360.081,159.375 362.112 C 138.511 371.501,139.110 371.452,125.908 364.844 C 114.572 359.169,115.330 359.184,115.978 364.648 C 119.084 390.837,128.174 399.468,152.734 399.553 C 173.046 399.624,187.625 392.261,193.704 378.861 C 199.515 366.052,187.669 354.214,172.266 357.439 M211.800 359.458 C 189.262 370.720,210.357 398.721,242.219 399.833 C 266.611 400.684,277.846 392.144,280.990 370.362 C 282.549 359.561,282.864 359.779,272.860 364.754 C 260.877 370.714,259.332 370.741,246.094 365.223 C 223.533 355.821,220.200 355.260,211.800 359.458 " stroke="none" fill="#white" fill-rule="evenodd"></path></g></svg>